<?xml version="1.0" standalone="no"?>
<!DOCTYPE svg PUBLIC "-//W3C//DTD SVG 20010904//EN"
 "http://www.w3.org/TR/2001/REC-SVG-20010904/DTD/svg10.dtd">
<svg version="1.0" xmlns="http://www.w3.org/2000/svg"
 width="16.000000pt" height="16.000000pt" viewBox="0 0 16.000000 16.000000"
 preserveAspectRatio="xMidYMid meet">
<metadata>
Created by potrace 1.11, written by Peter Selinger 2001-2013
</metadata>
<g transform="translate(0.000000,16.000000) scale(0.003125,-0.003125)"
fill="#000000" stroke="none">
<path d="M2464 5106 c-23 -7 -63 -28 -90 -46 -63 -42 -2229 -2204 -2295 -2290
-61 -80 -83 -149 -76 -237 9 -117 79 -217 186 -267 41 -19 67 -21 248 -24
l203 -3 2 -1002 3 -1002 27 -51 c40 -76 70 -107 140 -145 l63 -34 522 -3 523
-3 2 843 3 843 25 50 c31 64 91 124 155 155 l50 25 405 0 405 0 51 -27 c76
-40 107 -70 145 -140 l34 -63 3 -843 2 -843 523 3 522 3 63 34 c70 38 100 69
140 145 l27 51 3 1002 2 1002 203 3 c181 3 207 5 248 24 179 83 242 300 136
469 -17 28 -156 176 -309 330 l-277 280 -3 610 -3 610 -34 63 c-38 70 -69 100
-145 140 l-51 27 -245 0 c-241 0 -246 0 -295 -25 -64 -31 -124 -92 -155 -155
-21 -43 -25 -68 -28 -179 l-4 -128 -362 359 c-198 198 -383 375 -410 393 -86
58 -190 75 -282 46z m-374 -719 c113 -37 275 -117 423 -211 l108 -68 72 14
c47 8 154 13 307 13 153 0 260 -5 307 -13 l72 -14 108 68 c195 123 408 219
550 249 l32 6 31 -98 c47 -151 71 -306 72 -468 1 -131 2 -142 23 -165 34 -37
94 -135 122 -199 111 -251 91 -679 -47 -969 -49 -102 -85 -155 -162 -238 -146
-156 -377 -261 -648 -294 -110 -13 -810 -13 -920 0 -328 40 -586 181 -740 404
-193 281 -248 801 -117 1097 28 64 88 162 122 199 21 23 22 34 23 165 1 162
25 317 72 468 l31 98 32 -6 c18 -4 75 -21 127 -38z"/>
<path d="M2350 3240 c-114 -22 -198 -71 -260 -153 -106 -141 -132 -304 -84
-516 53 -233 242 -371 579 -422 141 -22 729 -19 860 4 321 57 497 191 549 419
48 211 22 374 -84 515 -47 61 -108 106 -188 136 -53 20 -70 21 -277 18 -364
-7 -659 -6 -860 1 -104 4 -210 3 -235 -2z m238 -254 c110 -57 160 -263 99
-407 -22 -52 -82 -116 -123 -129 -52 -18 -100 -4 -150 42 -59 55 -86 127 -86
233 0 120 41 210 116 256 37 22 106 25 144 5z m968 -5 c75 -46 116 -136 116
-256 0 -106 -27 -178 -86 -233 -75 -69 -153 -66 -221 10 -44 48 -65 94 -75
168 -18 131 36 269 125 318 32 18 106 14 141 -7z"/>
</g>
</svg>
